<?xml version="1.0" encoding="UTF-8"?>
<svg width="600" height="600" viewBox="0 0 600 600" fill="none" xmlns="http://www.w3.org/2000/svg">
  <path d="M100 100C100 77.9086 117.909 60 140 60H220C286.274 60 340 113.726 340 180C340 246.274 286.274 300 220 300H100V100Z" fill="#0E0A22"/>
  <path d="M240 100H420L500 300H420L380 180L340 300H240V100Z" fill="#0E0A22"/>
  <path d="M100 340H280L340 460H280L260 420H140L120 460H60L100 340Z" fill="#0E0A22"/>
  <path d="M360 340C360 317.909 377.909 300 400 300H480C546.274 300 600 353.726 600 420V540H520V420C520 397.909 502.091 380 480 380H440V540H360V340Z" fill="#0E0A22"/>
</svg>
