<svg xmlns="http://www.w3.org/2000/svg" width="24" height="24" viewBox="0 0 24 24" fill="none">
  <path d="M12 2C6.48 2 2 6.48 2 12C2 17.52 6.48 22 12 22C17.52 22 22 17.52 22 12C22 6.48 17.52 2 12 2ZM12 20C7.59 20 4 16.41 4 12C4 7.59 7.59 4 12 4C16.41 4 20 7.59 20 12C20 16.41 16.41 20 12 20Z" fill="white"/>
  <path d="M17 8.5C17 9.88 15.88 11 14.5 11C13.12 11 12 9.88 12 8.5C12 7.12 13.12 6 14.5 6C15.88 6 17 7.12 17 8.5Z" fill="white"/>
  <path d="M12 8.5C12 9.88 10.88 11 9.5 11C8.12 11 7 9.88 7 8.5C7 7.12 8.12 6 9.5 6C10.88 6 12 7.12 12 8.5Z" fill="white"/>
  <path d="M16 14.25C16 14.66 15.66 15 15.25 15H8.75C8.34 15 8 14.66 8 14.25V14.12C8 12.95 8.95 12 10.12 12H13.88C15.05 12 16 12.95 16 14.12V14.25Z" fill="white"/>
</svg> 