<?xml version="1.0" encoding="UTF-8"?>
<svg width="600" height="150" viewBox="0 0 600 150" fill="none" xmlns="http://www.w3.org/2000/svg">
  <!-- O -->
  <path d="M50 75C50 50.1472 70.1472 30 95 30H115C139.853 30 160 50.1472 160 75C160 99.8528 139.853 120 115 120H95C70.1472 120 50 99.8528 50 75Z" fill="rgba(109, 61, 255, 1)"/>
  <path d="M75 75C75 64.5066 83.5066 56 94 56H116C126.493 56 135 64.5066 135 75C135 85.4934 126.493 94 116 94H94C83.5066 94 75 85.4934 75 75Z" fill="none" stroke="#090521" stroke-width="8"/>
  
  <!-- M -->
  <path d="M170 30H200L230 70L260 30H290V120H260V75L230 110L200 75V120H170V30Z" fill="rgb(188, 166, 255, 1)"/>
  
  <!-- A -->
  <path d="M300 30H350L380 120H350L342.5 100H307.5L300 120H270L300 30ZM315 80H335L325 50L315 80Z" fill="rgba(109, 61, 255, 1)"/>
  
  <!-- S -->
  <path d="M390 30H470C482.15 30 492 39.8497 492 52V57C492 69.1503 482.15 79 470 79H412C403.163 79 396 86.1634 396 95V95C396 103.837 403.163 111 412 111H470V120H390C377.85 120 368 110.15 368 98V93C368 80.8497 377.85 71 390 71H448C456.837 71 464 63.8366 464 55V55C464 46.1634 456.837 39 448 39H390V30Z" fill="rgb(188, 166, 255, 1)"/>
  
  <!-- H -->
  <path d="M500 30H530V65H560V30H590V120H560V85H530V120H500V30Z" fill="rgba(109, 61, 255, 1)"/>
  
  <!-- U -->
  <path d="M600 30V85C600 104.33 584.33 120 565 120H525C505.67 120 490 104.33 490 85V30H520V85C520 87.7614 522.239 90 525 90H565C567.761 90 570 87.7614 570 85V30H600Z" fill="rgb(188, 166, 255, 1)"/>
</svg> 